<?xml version="1.0" encoding="iso-8859-1"?>
<!DOCTYPE svg PUBLIC "-//W3C//DTD SVG 1.1//EN" "http://www.w3.org/Graphics/SVG/1.1/DTD/svg11.dtd">
<svg 
 version="1.1" xmlns="http://www.w3.org/2000/svg" xmlns:xlink="http://www.w3.org/1999/xlink" x="0px" y="0px" width="512px"
	 height="512px" viewBox="0 0 512 512" style="enable-background:new 0 0 512 512;" xml:space="preserve"
><g id="afcae5a789ccd549f9c6e2a2f80c5d02"><g></g><g fill="#3c2725"><path style="display: inline;" d="M402.518,239.787c-22.835,29.203-39.926,62.3-48.862,97.419
		c-7.189,18.423,1.39,43.313-18.422,56.373c-26.413,0-52.823,0-79.237,0c-26.407,0-52.816,0-79.23,0
		c-19.811-13.06-11.231-37.95-18.414-56.373c-8.952-35.119-26.03-68.217-48.87-97.419C77.66,183.268,82.796,110.591,125.018,59.732
		C152.046,22.066,198.044,2.155,255.997,0.5c57.959,1.655,103.955,21.566,130.982,59.232
		C429.204,110.591,434.34,183.268,402.518,239.787z M206.865,491.847h19.654V511.5h58.962v-19.653h19.653l19.654-78.614H187.212
		L206.865,491.847z"></path></g></g></svg>