<?xml version="1.0" encoding="iso-8859-1"?>
<!-- Generator: Adobe Illustrator 19.0.0, SVG Export Plug-In . SVG Version: 6.00 Build 0)  -->
<svg version="1.1" id="Layer_1" xmlns="http://www.w3.org/2000/svg" xmlns:xlink="http://www.w3.org/1999/xlink" x="0px" y="0px"
	 viewBox="0 0 472.8 472.8" style="enable-background:new 0 0 472.8 472.8;" xml:space="preserve">
<polygon style="fill:#0D9B79;" points="408,87.6 379.2,114.8 342.4,114.8 408,50.8 472.8,117.2 436,117.2 "/>
<polyline style="fill:#23C181;" points="408,50.8 472.8,117.2 436,117.2 408,87.6 379.2,114.8 "/>
<polygon style="fill:#0D9B79;" points="408,168.4 379.2,197.2 342.4,197.2 408,132.4 472.8,197.2 436,197.2 "/>
<g>
	<polyline style="fill:#23C181;" points="408,132.4 472.8,197.2 436,197.2 408,168.4 379.2,197.2 	"/>
	<path style="fill:#23C181;" d="M350.4,237.2c-1.6,64-51.2,112.8-113.6,112.8c-63.2,0-114.4-50.4-114.4-113.6
		c0-60.8,50.4-109.6,106.4-112.8V1.2C100.8,4.4,0,109.2,0,237.2c0,130.4,106.4,234.4,236.8,234.4c128.8,0,234.4-106.4,236-234.4
		H350.4z"/>
</g>
<path style="fill:#0D9B79;" d="M0.8,237.2c0,130.4,105.6,234.4,236,234.4c129.6,0,234.4-106.4,236-234.4H350.4
	c-1.6,64-51.2,112.8-113.6,112.8c-63.2,0-114.4-50.4-114.4-113.6"/>
<g>
</g>
<g>
</g>
<g>
</g>
<g>
</g>
<g>
</g>
<g>
</g>
<g>
</g>
<g>
</g>
<g>
</g>
<g>
</g>
<g>
</g>
<g>
</g>
<g>
</g>
<g>
</g>
<g>
</g>
</svg>
